<svg id="Layer_1" data-name="Layer 1" xmlns="http://www.w3.org/2000/svg" viewBox="0 0 378.99 378.99"><circle cx="189.49" cy="189.49" r="189.49" style="fill:#b4d671"/><path d="M323.09,202.88H55.9a8,8,0,0,1,0-15.92H323.09a8,8,0,1,1,0,15.92Z" transform="translate(0)" style="fill:#3d180d"/><path d="M113.22,235.33h0a10.08,10.08,0,0,1-10.06-10.05V199.19a10.09,10.09,0,0,1,10.06-10.06h0a10.09,10.09,0,0,1,10.06,10.06v26.09A10.08,10.08,0,0,1,113.22,235.33Z" transform="translate(0)" style="fill:#3d180d"/><path d="M265.76,235.33h0a10.08,10.08,0,0,1-10-10.05V199.19a10.08,10.08,0,0,1,10-10.06h0a10.09,10.09,0,0,1,10.06,10.06v26.09A10.08,10.08,0,0,1,265.76,235.33Z" transform="translate(0)" style="fill:#3d180d"/><path d="M216.77,276.43H162.22a8,8,0,0,1,0-15.92h54.55a8,8,0,0,1,0,15.92Z" transform="translate(0)" style="fill:#3d180d"/></svg>