<svg id="Layer_1" data-name="Layer 1" xmlns="http://www.w3.org/2000/svg" viewBox="0 0 378.99 378.99"><circle cx="189.49" cy="189.49" r="189.49" style="fill:#cd2334"/><path d="M83.78,126.1a3.57,3.57,0,0,0-1.09,7c5.21,1.36,17.06,5.35,26.66,15.2a30.2,30.2,0,1,0,47.26,24.92C156.61,132.84,99.17,127,83.78,126.1Z" transform="translate(0)" style="fill:#010101"/><path d="M295.21,126.1c-15.4.85-72.84,6.74-72.84,47.14a30.21,30.21,0,1,0,47.27-24.92c9.6-9.85,21.45-13.84,26.65-15.2a3.57,3.57,0,0,0-1.08-7Z" transform="translate(0)" style="fill:#010101"/><path d="M241.47,288.66a8.54,8.54,0,0,1-7.23-4c-.64-1-15.51-23.73-44.75-23.73-28.64,0-44.19,22.9-44.84,23.88a8.54,8.54,0,0,1-14.27-9.37c.84-1.29,21.05-31.58,59.11-31.58,38.93,0,58.4,30.43,59.21,31.73a8.54,8.54,0,0,1-7.23,13.06Z" transform="translate(0)" style="fill:#010101"/></svg>