<svg id="Layer_1" data-name="Layer 1" xmlns="http://www.w3.org/2000/svg" viewBox="0 0 180.93 180.93"><circle cx="92.59" cy="92.59" r="90.46" transform="translate(-40.48 90.46) rotate(-45)" style="fill:#ff8355"/><line x1="39.88" y1="58.6" x2="59.5" y2="78.22" style="fill:#ff8355;stroke:#232020;stroke-linecap:round;stroke-linejoin:round;stroke-width:5.3129800000000005px"/><line x1="59.5" y1="58.6" x2="39.88" y2="78.22" style="fill:#ff8355;stroke:#232020;stroke-linecap:round;stroke-linejoin:round;stroke-width:5.3129800000000005px"/><line x1="121.42" y1="58.6" x2="141.04" y2="78.22" style="fill:#ff8355;stroke:#232020;stroke-linecap:round;stroke-linejoin:round;stroke-width:5.3129800000000005px"/><line x1="141.04" y1="58.6" x2="121.42" y2="78.22" style="fill:#ff8355;stroke:#232020;stroke-linecap:round;stroke-linejoin:round;stroke-width:5.3129800000000005px"/><path d="M147,122.53a11.25,11.25,0,0,1-11,7.88A11.45,11.45,0,0,1,125,122h0a11.46,11.46,0,0,0-21.76.51,11.26,11.26,0,0,1-11,7.88,11.46,11.46,0,0,1-11-8.39,11.43,11.43,0,0,0-21.72.51,11.26,11.26,0,0,1-11,7.88,11.46,11.46,0,0,1-11-8.39" transform="translate(-2.13 -2.13)" style="fill:#ff8355;stroke:#232020;stroke-linecap:round;stroke-linejoin:round;stroke-width:4.25px"/></svg>