<svg id="Layer_1" data-name="Layer 1" xmlns="http://www.w3.org/2000/svg" viewBox="0 0 378.99 378.99"><circle cx="189.49" cy="189.49" r="189.49" style="fill:#a64d9d"/><polyline points="85.93 177.05 122.25 157.37 85.93 137.69" style="fill:none;stroke:#232020;stroke-linecap:round;stroke-linejoin:round;stroke-width:10px"/><polyline points="293.06 177.05 256.73 157.37 293.06 137.69" style="fill:none;stroke:#232020;stroke-linecap:round;stroke-linejoin:round;stroke-width:10px"/><path d="M304.16,252.21c-3,9.85-12.15,16.51-23,16.51a24,24,0,0,1-23.13-17.57l0,0a24,24,0,0,0-45.58,1.08c-3,9.85-12.14,16.51-23,16.51a24,24,0,0,1-23.13-17.57,24,24,0,0,0-45.5,1.06c-3,9.85-12.14,16.51-23,16.51a24,24,0,0,1-23.13-17.57" transform="translate(0)" style="fill:none;stroke:#232020;stroke-linecap:round;stroke-linejoin:round;stroke-width:10px"/></svg>