<svg id="Layer_1" data-name="Layer 1" xmlns="http://www.w3.org/2000/svg" viewBox="0 0 378.99 378.99"><circle cx="189.49" cy="189.49" r="189.49" style="fill:#71bf44"/><path d="M155.08,186.19a3.59,3.59,0,0,1-3.91.29C121.29,170,89,178.41,82,179.77a3.92,3.92,0,0,1-.68.07,3.56,3.56,0,0,1-3.21-2c-.89-1.84.25-3.55,1.84-4.83,5.14-4.15,38.61-32.18,75.61,7.86A3.64,3.64,0,0,1,155.08,186.19Z" style="fill:#010101"/><path d="M223.9,186.19a3.61,3.61,0,0,0,3.92.29C257.7,170,290,178.41,297,179.77a4,4,0,0,0,.69.07,3.58,3.58,0,0,0,3.21-2c.88-1.84-.25-3.55-1.85-4.83-5.14-4.15-38.61-32.18-75.6,7.86A3.64,3.64,0,0,0,223.9,186.19Z" style="fill:#010101"/><path d="M122.38,252.4s10.9,48.65,67.11,48.65c55.73,0,67.11-48.65,67.11-48.65Z" style="fill:#010101"/></svg>